<svg version="1.1" xmlns="http://www.w3.org/2000/svg" xmlns:xlink="http://www.w3.org/1999/xlink" width="24.36" height="24" viewBox="0,0,24.36,24"><g transform="translate(-227.82,-168)"><g data-paper-data="{&quot;isPaintingLayer&quot;:true}" fill-rule="nonzero" stroke-linecap="butt" stroke-linejoin="miter" stroke-miterlimit="10" stroke-dasharray="" stroke-dashoffset="0" style="mix-blend-mode: normal"><path d="M227.82,180c0,-6.62742 5.45317,-12 12.18,-12c6.72683,0 12.18,5.37258 12.18,12c0,6.62742 -5.45317,12 -12.18,12c-6.72683,0 -12.18,-5.37258 -12.18,-12z" fill="#ff0000" stroke="none" stroke-width="1"/><path d="M232.692,180c0,-3.97645 3.27191,-7.2 7.308,-7.2c4.03609,0 7.308,3.22355 7.308,7.2c0,3.97645 -3.27191,7.2 -7.308,7.2c-4.03609,0 -7.308,-3.22355 -7.308,-7.2z" fill="#ff0000" stroke="#ffffff" stroke-width="1.2"/><text transform="translate(245.14904,185.71538) rotate(-90.41262) scale(0.28674,0.28674)" font-size="40" xml:space="preserve" fill="#ffffff" fill-rule="nonzero" stroke="none" stroke-width="1" stroke-linecap="butt" stroke-linejoin="miter" stroke-miterlimit="10" stroke-dasharray="" stroke-dashoffset="0" font-family="Sans Serif" font-weight="normal" text-anchor="start" style="mix-blend-mode: normal"><tspan x="0" dy="0">▼</tspan></text></g></g></svg>